<?xml version="1.0" encoding="UTF-8" standalone="no"?>
<svg width="80px" height="23px" viewBox="0 0 80 23" version="1.1" xmlns="http://www.w3.org/2000/svg" xmlns:xlink="http://www.w3.org/1999/xlink" xmlns:sketch="http://www.bohemiancoding.com/sketch/ns">
    <!-- Generator: Sketch 3.3.2 (12043) - http://www.bohemiancoding.com/sketch -->
    <title>dakota-logo</title>
    <desc>Created with Sketch.</desc>
    <defs></defs>
    <g id="Marketing" stroke="none" stroke-width="1" fill="none" fill-rule="evenodd" sketch:type="MSPage">
        <g sketch:type="MSArtboardGroup" transform="translate(-221.000000, -113.000000)" id="INTRO" fill="#FFFFFF">
            <g sketch:type="MSLayerGroup" transform="translate(217.000000, 105.000000)">
                <path d="M4.17,22.56 C4.17,21.3399939 4.34499825,20.2500048 4.695,19.29 C5.04500175,18.3299952 5.50499715,17.5150034 6.075,16.845 C6.64500285,16.1749967 7.30499625,15.6600018 8.055,15.3 C8.80500375,14.9399982 9.5699961,14.76 10.35,14.76 C11.1900042,14.76 11.8799973,14.8999986 12.42,15.18 C12.9600027,15.4600014 13.4899974,15.8399976 14.01,16.32 L13.83,14.04 L13.83,8.97 L18.24,8.97 L18.24,30 L14.64,30 L14.34,28.53 L14.22,28.53 C13.6999974,29.0500026 13.0900035,29.4849983 12.39,29.835 C11.6899965,30.1850018 10.9800036,30.36 10.26,30.36 C9.3399954,30.36 8.50500375,30.1800018 7.755,29.82 C7.00499625,29.4599982 6.36500265,28.9450034 5.835,28.275 C5.30499735,27.6049967 4.89500145,26.7900048 4.605,25.83 C4.31499855,24.8699952 4.17,23.7800061 4.17,22.56 L4.17,22.56 Z M8.7,22.5 C8.7,23.9800074 8.93499765,25.0599966 9.405,25.74 C9.87500235,26.4200034 10.5399957,26.76 11.4,26.76 C11.8800024,26.76 12.314998,26.660001 12.705,26.46 C13.0950019,26.259999 13.4699982,25.9100025 13.83,25.41 L13.83,19.32 C13.429998,18.9599982 13.0200021,18.7100007 12.6,18.57 C12.1799979,18.4299993 11.770002,18.36 11.37,18.36 C10.6699965,18.36 10.0500027,18.6949967 9.51,19.365 C8.9699973,20.0350034 8.7,21.0799929 8.7,22.5 L8.7,22.5 Z M19.5999998,25.86 C19.5999998,24.2999922 20.2599932,23.0800044 21.5799998,22.2 C22.9000064,21.3199956 25.0299851,20.7300015 27.9699998,20.43 C27.9299996,19.7699967 27.7300016,19.245002 27.3699998,18.855 C27.009998,18.464998 26.4300038,18.27 25.6299998,18.27 C24.9899966,18.27 24.350003,18.3899988 23.7099998,18.63 C23.0699966,18.8700012 22.3900034,19.1999979 21.6699998,19.62 L20.1099998,16.71 C21.0700046,16.1299971 22.0749945,15.6600018 23.1249998,15.3 C24.175005,14.9399982 25.2899939,14.76 26.4699998,14.76 C28.3900094,14.76 29.8549947,15.3049945 30.8649998,16.395 C31.8750048,17.4850055 32.3799998,19.1799885 32.3799998,21.48 L32.3799998,30 L28.7799998,30 L28.4499998,28.47 L28.3599998,28.47 C27.7199966,29.0300028 27.0450033,29.4849983 26.3349998,29.835 C25.6249962,30.1850018 24.850004,30.36 24.0099998,30.36 C23.3299964,30.36 22.7200025,30.2450012 22.1799998,30.015 C21.6399971,29.7849989 21.1800017,29.465002 20.7999998,29.055 C20.4199979,28.644998 20.1250008,28.1700027 19.9149998,27.63 C19.7049987,27.0899973 19.5999998,26.5000032 19.5999998,25.86 L19.5999998,25.86 Z M23.7999998,25.53 C23.7999998,26.0100024 23.9549982,26.3649988 24.2649998,26.595 C24.5750013,26.8250011 24.9899972,26.94 25.5099998,26.94 C26.0300024,26.94 26.469998,26.8300011 26.8299998,26.61 C27.1900016,26.3899989 27.5699978,26.080002 27.9699998,25.68 L27.9699998,23.07 C26.3899919,23.2900011 25.3000028,23.6099979 24.6999998,24.03 C24.0999968,24.4500021 23.7999998,24.9499971 23.7999998,25.53 L23.7999998,25.53 Z M34.1599995,8.97 L38.4499995,8.97 L38.4499995,21.03 L38.5699995,21.03 L43.2799995,15.12 L48.0799995,15.12 L42.8599995,21.24 L48.4699995,30 L43.6999995,30 L40.3399995,24.21 L38.4499995,26.34 L38.4499995,30 L34.1599995,30 L34.1599995,8.97 Z M46.8899993,22.56 C46.8899993,21.3199938 47.0899973,20.2150048 47.4899993,19.245 C47.8900013,18.2749951 48.4249959,17.4600033 49.0949993,16.8 C49.7650026,16.1399967 50.5399949,15.6350018 51.4199993,15.285 C52.3000037,14.9349982 53.2099946,14.76 54.1499993,14.76 C55.090004,14.76 55.9949949,14.9349982 56.8649993,15.285 C57.7350036,15.6350018 58.5049959,16.1399967 59.1749993,16.8 C59.8450026,17.4600033 60.3799973,18.2749951 60.7799993,19.245 C61.1800013,20.2150048 61.3799993,21.3199938 61.3799993,22.56 C61.3799993,23.8000062 61.1800013,24.9049951 60.7799993,25.875 C60.3799973,26.8450048 59.8450026,27.6599967 59.1749993,28.32 C58.5049959,28.9800033 57.7350036,29.4849983 56.8649993,29.835 C55.9949949,30.1850018 55.090004,30.36 54.1499993,30.36 C53.2099946,30.36 52.3000037,30.1850018 51.4199993,29.835 C50.5399949,29.4849983 49.7650026,28.9800033 49.0949993,28.32 C48.4249959,27.6599967 47.8900013,26.8450048 47.4899993,25.875 C47.0899973,24.9049951 46.8899993,23.8000062 46.8899993,22.56 L46.8899993,22.56 Z M51.4199993,22.56 C51.4199993,23.8600065 51.644997,24.8899962 52.0949993,25.65 C52.5450015,26.4100038 53.2299947,26.79 54.1499993,26.79 C55.0500038,26.79 55.729997,26.4100038 56.1899993,25.65 C56.6500016,24.8899962 56.8799993,23.8600065 56.8799993,22.56 C56.8799993,21.2599935 56.6500016,20.2300038 56.1899993,19.47 C55.729997,18.7099962 55.0500038,18.33 54.1499993,18.33 C53.2299947,18.33 52.5450015,18.7099962 52.0949993,19.47 C51.644997,20.2300038 51.4199993,21.2599935 51.4199993,22.56 L51.4199993,22.56 Z M63.009999,18.57 L60.969999,18.57 L60.969999,15.3 L63.249999,15.12 L63.759999,11.16 L67.419999,11.16 L67.419999,15.12 L70.989999,15.12 L70.989999,18.57 L67.419999,18.57 L67.419999,24.54 C67.419999,25.3800042 67.5949973,25.9849981 67.944999,26.355 C68.2950008,26.7250018 68.7599961,26.91 69.339999,26.91 C69.5800002,26.91 69.8249978,26.8800003 70.074999,26.82 C70.3250003,26.7599997 70.549998,26.6900004 70.749999,26.61 L71.439999,29.82 C71.039997,29.9400006 70.5700017,30.0599994 70.029999,30.18 C69.4899963,30.3000006 68.8600026,30.36 68.139999,30.36 C67.2199944,30.36 66.4350023,30.2200014 65.784999,29.94 C65.1349958,29.6599986 64.6050011,29.2700025 64.194999,28.77 C63.784997,28.2699975 63.485,27.6650036 63.294999,26.955 C63.1049981,26.2449965 63.009999,25.4600043 63.009999,24.6 L63.009999,18.57 Z M70.9999988,25.86 C70.9999988,24.2999922 71.6599922,23.0800044 72.9799988,22.2 C74.3000054,21.3199956 76.4299841,20.7300015 79.3699988,20.43 C79.3299986,19.7699967 79.1300006,19.245002 78.7699988,18.855 C78.409997,18.464998 77.8300028,18.27 77.0299988,18.27 C76.3899956,18.27 75.750002,18.3899988 75.1099988,18.63 C74.4699956,18.8700012 73.7900024,19.1999979 73.0699988,19.62 L71.5099988,16.71 C72.4700036,16.1299971 73.4749936,15.6600018 74.5249988,15.3 C75.5750041,14.9399982 76.6899929,14.76 77.8699988,14.76 C79.7900084,14.76 81.2549938,15.3049945 82.2649988,16.395 C83.2750039,17.4850055 83.7799988,19.1799885 83.7799988,21.48 L83.7799988,30 L80.1799988,30 L79.8499988,28.47 L79.7599988,28.47 C79.1199956,29.0300028 78.4450024,29.4849983 77.7349988,29.835 C77.0249953,30.1850018 76.250003,30.36 75.4099988,30.36 C74.7299954,30.36 74.1200015,30.2450012 73.5799988,30.015 C73.0399961,29.7849989 72.5800007,29.465002 72.1999988,29.055 C71.8199969,28.644998 71.5249999,28.1700027 71.3149988,27.63 C71.1049978,27.0899973 70.9999988,26.5000032 70.9999988,25.86 L70.9999988,25.86 Z M75.1999988,25.53 C75.1999988,26.0100024 75.3549973,26.3649988 75.6649988,26.595 C75.9750004,26.8250011 76.3899962,26.94 76.9099988,26.94 C77.4300014,26.94 77.869997,26.8300011 78.2299988,26.61 C78.5900006,26.3899989 78.9699968,26.080002 79.3699988,25.68 L79.3699988,23.07 C77.7899909,23.2900011 76.7000018,23.6099979 76.0999988,24.03 C75.4999958,24.4500021 75.1999988,24.9499971 75.1999988,25.53 L75.1999988,25.53 Z" id="dakota-logo" sketch:type="MSShapeGroup"></path>
            </g>
        </g>
    </g>
</svg>