<?xml version="1.0" encoding="UTF-8" standalone="no"?>
<svg width="21px" height="14px" viewBox="0 0 21 14" version="1.1" xmlns="http://www.w3.org/2000/svg" xmlns:xlink="http://www.w3.org/1999/xlink" xmlns:sketch="http://www.bohemiancoding.com/sketch/ns">
    <!-- Generator: Sketch 3.3.1 (12005) - http://www.bohemiancoding.com/sketch -->
    <title>mail</title>
    <desc>Created with Sketch.</desc>
    <defs></defs>
    <g id="Marketing" stroke="none" stroke-width="1" fill="none" fill-rule="evenodd" sketch:type="MSPage">
        <g sketch:type="MSArtboardGroup" transform="translate(-1279.000000, -1441.000000)" id="BOTTOM-BAR" fill="#3B94CB">
            <g sketch:type="MSLayerGroup" transform="translate(-12.500000, 1418.500000)">
                <path d="M1292.52218,24.1399997 C1293.07682,24.4381083 1300.75675,28.5634593 1301.04259,28.7170579 C1301.32866,28.8706566 1301.69902,28.9447293 1302.07211,28.9447293 C1302.4452,28.9447293 1302.81557,28.8706566 1303.10163,28.7170579 C1303.38747,28.5634593 1311.0674,24.4383355 1311.62204,24.1399997 C1312.1769,23.8421183 1312.70223,22.9066661 1311.68271,22.9066661 L1292.46152,22.9066661 C1291.44268,22.9066661 1291.96709,23.8421183 1292.52218,24.1399997 L1292.52218,24.1399997 Z M1311.85698,26.4121692 C1311.22691,26.7409521 1303.48745,30.7881404 1303.10163,30.9892274 C1302.71559,31.1907689 1302.4452,31.2168988 1302.07211,31.2168988 C1301.69902,31.2168988 1301.42863,31.1907689 1301.04259,30.9892274 C1300.65678,30.7881404 1292.91777,26.7409521 1292.28724,26.4121692 C1291.84371,26.1808623 1291.84735,26.4521594 1291.84735,26.6616534 L1291.84735,34.9957439 C1291.84735,35.4719906 1292.48174,36.0852492 1292.97412,36.0852492 L1311.17011,36.0852492 C1311.66249,36.0852492 1312.29688,35.4719906 1312.29688,34.9957439 L1312.29688,26.6616534 C1312.29688,26.4521594 1312.30097,26.1808623 1311.85698,26.4121692 L1311.85698,26.4121692 Z" id="mail" sketch:type="MSShapeGroup"></path>
            </g>
        </g>
    </g>
</svg>