<?xml version="1.0" encoding="UTF-8" standalone="no"?>
<svg width="21px" height="21px" viewBox="0 0 21 21" version="1.1" xmlns="http://www.w3.org/2000/svg" xmlns:xlink="http://www.w3.org/1999/xlink" xmlns:sketch="http://www.bohemiancoding.com/sketch/ns">
    <!-- Generator: Sketch 3.3.1 (12005) - http://www.bohemiancoding.com/sketch -->
    <title>Shape 5</title>
    <desc>Created with Sketch.</desc>
    <defs></defs>
    <g id="Marketing" stroke="none" stroke-width="1" fill="none" fill-rule="evenodd" sketch:type="MSPage">
        <g sketch:type="MSArtboardGroup" transform="translate(-621.000000, -6900.000000)" id="BLOCK---8" fill="#FFFFFF">
            <g sketch:type="MSLayerGroup" transform="translate(-1.000000, 5959.000000)">
                <g id="Group" transform="translate(222.000000, 706.000000)" sketch:type="MSShapeGroup">
                    <path d="M417.906316,235.5 L403.250823,235.5 C401.907517,235.5 400.808241,236.599276 400.808241,237.942582 L400.808241,252.598076 C400.808241,253.941609 401.907517,255.040658 403.250823,255.040658 L410.662867,255.040658 L410.662867,248.034196 L408.322987,248.034196 L408.322987,244.981763 L410.662867,244.981763 L410.662867,243.452593 C410.662867,241.095445 412.403349,239.24908 414.625304,239.24908 L416.782047,239.24908 L416.782047,242.695734 L414.852521,242.695734 C414.347417,242.695734 414.199272,242.985662 414.199272,243.386473 L414.199272,244.981763 L416.782047,244.981763 L416.782047,248.034196 L414.199272,248.034196 L414.199272,255.040658 L417.906089,255.040658 C419.24985,255.040658 420.348671,253.941609 420.348671,252.598076 L420.348671,237.942582 C420.348899,236.599276 419.250078,235.5 417.906316,235.5 L417.906316,235.5 Z" id="Shape-5"></path>
                </g>
            </g>
        </g>
    </g>
</svg>