<?xml version="1.0" encoding="UTF-8" standalone="no"?>
<svg width="20px" height="21px" viewBox="0 0 20 21" version="1.1" xmlns="http://www.w3.org/2000/svg" xmlns:xlink="http://www.w3.org/1999/xlink" xmlns:sketch="http://www.bohemiancoding.com/sketch/ns">
    <!-- Generator: Sketch 3.3.1 (12005) - http://www.bohemiancoding.com/sketch -->
    <title>facebook</title>
    <desc>Created with Sketch.</desc>
    <defs></defs>
    <g id="Marketing" stroke="none" stroke-width="1" fill="none" fill-rule="evenodd" sketch:type="MSPage">
        <g sketch:type="MSArtboardGroup" transform="translate(-1245.000000, -1437.000000)" id="BOTTOM-BAR" fill="#3B94CB">
            <g sketch:type="MSLayerGroup" transform="translate(-12.500000, 1418.500000)">
                <path d="M1274.77175,19.2936711 L1260.11626,19.2936711 C1258.77295,19.2936711 1257.67367,20.3929467 1257.67367,21.7362534 L1257.67367,36.3917466 C1257.67367,37.7352805 1258.77295,38.8343289 1260.11626,38.8343289 L1267.5283,38.8343289 L1267.5283,31.827867 L1265.18842,31.827867 L1265.18842,28.7754345 L1267.5283,28.7754345 L1267.5283,27.2462644 C1267.5283,24.8891158 1269.26878,23.0427508 1271.49074,23.0427508 L1273.64748,23.0427508 L1273.64748,26.4894047 L1271.71795,26.4894047 C1271.21285,26.4894047 1271.06471,26.7793336 1271.06471,27.1801443 L1271.06471,28.7754345 L1273.64748,28.7754345 L1273.64748,31.827867 L1271.06471,31.827867 L1271.06471,38.8343289 L1274.77152,38.8343289 C1276.11528,38.8343289 1277.21411,37.7352805 1277.21411,36.3917466 L1277.21411,21.7362534 C1277.21433,20.3929467 1276.11551,19.2936711 1274.77175,19.2936711 L1274.77175,19.2936711 Z" id="facebook" sketch:type="MSShapeGroup"></path>
            </g>
        </g>
    </g>
</svg>