<?xml version="1.0" encoding="UTF-8" standalone="no"?>
<svg width="250px" height="250px" viewBox="0 0 250 250" version="1.1" xmlns="http://www.w3.org/2000/svg" xmlns:xlink="http://www.w3.org/1999/xlink" xmlns:sketch="http://www.bohemiancoding.com/sketch/ns">
    <!-- Generator: Sketch 3.3.1 (12005) - http://www.bohemiancoding.com/sketch -->
    <title>ill-tech</title>
    <desc>Created with Sketch.</desc>
    <defs></defs>
    <g id="Marketing" stroke="none" stroke-width="1" fill="none" fill-rule="evenodd" sketch:type="MSPage">
        <g sketch:type="MSArtboardGroup" transform="translate(-926.000000, -5154.000000)" id="BLOCK---7">
            <g sketch:type="MSLayerGroup" transform="translate(1.000000, 5022.000000)">
                <g id="ill-tech" transform="translate(925.000000, 132.000000)" sketch:type="MSShapeGroup">
                    <path d="M124.780475,0.145661157 C107.775826,0.145661157 91.5692149,3.55320248 76.7980372,9.7143595 L132.558368,90.9622934 L180.823864,90.9622934 C183.664773,90.9622934 185.989153,93.2866736 185.989153,96.1275826 L185.989153,158.475207 L244.942149,158.475207 C247.923037,147.788223 249.522211,136.524793 249.522211,124.887397 C249.522211,55.9943182 193.673037,0.145661157 124.780475,0.145661157" id="Fill-1" fill="#C9E4CF"></path>
                    <path d="M0.0387396694,124.887397 C0.0387396694,136.524793 1.63791322,147.788223 4.61880165,158.475207 L69.2536157,158.475207 L69.2536157,96.1275826 C69.2536157,93.2866736 71.5779959,90.9622934 74.418905,90.9622934 L132.558368,90.9622934 L76.7980372,9.7143595 C31.7231405,28.5149793 0.0387396694,72.9984504 0.0387396694,124.887397" id="Fill-2" fill="#C9E4CF"></path>
                    <path d="M124.780475,0.145661157 C107.775826,0.145661157 91.5692149,3.55320248 76.7980372,9.7143595 L132.558368,90.9622934 L180.823864,90.9622934 C183.664773,90.9622934 185.989153,93.2866736 185.989153,96.1275826 L185.989153,158.475207 L244.942149,158.475207 C247.923037,147.788223 249.522211,136.524793 249.522211,124.887397 C249.522211,55.9943182 193.673037,0.145661157 124.780475,0.145661157" id="Fill-3" fill="#B8D3BE"></path>
                    <path d="M158.341942,195.216426 C158.552169,194.809401 158.646694,194.119835 158.684917,193.455579 L158.684917,192.52531 L155.014463,192.52531 C155.802169,193.042355 156.549587,193.672521 157.070764,194.165289 C157.582128,194.648244 157.964876,194.978822 158.341942,195.216426" id="Fill-4" fill="#4F504D"></path>
                    <path d="M161.338326,242.136364 C161.123967,242.136364 160.951446,241.963326 160.951446,241.749483 C160.951446,241.53564 161.123967,241.362603 161.338326,241.362603 L162.365702,241.362603 C162.408058,239.885331 162.447831,238.378616 162.481921,236.847624 L161.338326,236.847624 C161.123967,236.847624 160.951446,236.674587 160.951446,236.460744 C160.951446,236.246901 161.123967,236.073864 161.338326,236.073864 L162.497934,236.073864 C162.52686,234.704029 162.551136,233.318698 162.570248,231.923554 L161.338326,231.923554 C161.123967,231.923554 160.951446,231.750517 160.951446,231.536674 C160.951446,231.322831 161.123967,231.149793 161.338326,231.149793 L162.580579,231.149793 C162.631198,226.996384 162.632231,222.775826 162.553719,218.664256 L161.470041,218.664256 L161.470041,213.257748 L162.399793,213.257748 C162.318698,211.176136 162.210227,209.151343 162.073864,207.20093 C161.860021,206.985021 161.654959,206.758781 161.457645,206.52376 C160.465909,205.402893 159.553202,204.012397 158.979339,203.309401 C157.939566,202.034607 157.027893,200.253099 155.823347,199.14876 C155.823347,199.14876 153.432335,197.229855 152.509814,196.784091 C151.790289,196.436467 149.898244,194.387397 150.821281,192.702996 C150.855888,192.639979 150.893079,192.581612 150.931302,192.52531 L64.7427686,192.52531 C61.5950413,192.52531 60.2221074,190.20093 61.6916322,187.360021 C64.1477273,182.539256 66.6033058,177.718492 69.0588843,172.897211 C70.2820248,170.533058 72.7546488,168.532025 75.0113636,167.925103 L74.418905,167.925103 C71.5779959,167.925103 69.2536157,165.600723 69.2536157,162.759814 L69.2536157,158.475207 L4.61880165,158.475207 C7.06818182,167.256715 10.4555785,175.646178 14.6642562,183.532025 L17.6007231,170.009814 L40.8445248,170.009814 L46.009814,193.797004 L20.7933884,193.797004 C30.776343,208.831612 43.9302686,221.574897 59.303719,231.07438 C58.222624,229.217975 57.597624,226.97624 57.597624,224.561467 C57.597624,224.430785 57.6022727,224.30062 57.6058884,224.170455 C57.6053719,224.154442 57.6012397,224.138946 57.6012397,224.122934 L57.6012397,207.076446 C57.6012397,205.833161 58.6182851,204.816116 59.8615702,204.816116 L59.9829545,204.816116 C60.2184917,204.816116 60.4411157,204.862603 60.6544421,204.930269 L60.9622934,201.194215 C61.1957645,198.36312 63.7029959,196.237603 66.5346074,196.470558 L68.080062,196.59814 C68.3145661,195.600207 69.2097107,194.84969 70.276343,194.84969 L70.3977273,194.84969 C71.5945248,194.84969 72.572314,195.794938 72.6446281,196.974174 L75.5382231,197.21281 C78.3698347,197.445764 80.4953512,199.953512 80.2618802,202.784607 L79.0841942,217.082645 C79.526343,216.52686 80.0056818,216.065599 80.4850207,215.841942 C80.4850207,215.841942 81.6802686,215.389463 82.6616736,216.195764 C84.1451446,217.414773 83.1528926,220.021178 82.6146694,220.612087 C81.9245868,221.369318 80.4204545,224.040806 80.4204545,224.040806 C79.713843,225.514463 79.2133264,227.083678 78.7231405,228.653926 C78.3326446,229.904442 75.8073347,232.279442 74.4152893,233.907025 C74.3047521,235.563533 74.2159091,237.23657 74.1456612,238.916322 C89.6203512,245.798554 106.752066,249.629132 124.780475,249.629132 C137.850723,249.629132 150.449897,247.614669 162.289256,243.886364 C162.307851,243.308884 162.32593,242.725723 162.343492,242.136364 L161.338326,242.136364" id="Fill-5" fill="#4F504D"></path>
                    <path d="M185.989153,162.759814 C185.989153,165.298554 184.131198,167.418905 181.709194,167.842975 C184.04907,168.335227 186.705062,170.418905 187.987087,172.897211 C190.442665,177.718492 192.89876,182.539256 195.354339,187.360021 C196.823864,190.20093 195.45093,192.52531 192.303719,192.52531 L178.938017,192.52531 L178.938017,198.108988 C178.938017,198.125 178.933368,198.140496 178.933368,198.156508 C178.936983,198.286674 178.941632,198.416839 178.941632,198.548037 C178.941632,202.360537 177.384814,205.742769 174.930269,207.855888 C174.814566,209.602273 174.722624,211.409091 174.65031,213.257748 L175.894628,213.257748 L175.894628,218.664256 L174.496901,218.664256 C174.418388,222.774277 174.419421,226.994835 174.470041,231.149793 L175.884298,231.149793 C176.09814,231.149793 176.271178,231.322831 176.271178,231.536674 C176.271178,231.750517 176.09814,231.923554 175.884298,231.923554 L174.480372,231.923554 C174.499483,233.318182 174.52376,234.704029 174.552686,236.073864 L175.884298,236.073864 C176.09814,236.073864 176.271178,236.246901 176.271178,236.460744 C176.271178,236.674587 176.09814,236.847624 175.884298,236.847624 L174.569215,236.847624 C174.586777,237.659091 174.606921,238.463326 174.627066,239.260847 C208.682335,224.397727 234.815599,194.777376 244.942149,158.475207 L185.989153,158.475207 L185.989153,162.759814" id="Fill-6" fill="#4F504D"></path>
                    <path d="M75.0113636,167.925103 C72.7546488,168.532025 70.2820248,170.533058 69.0588843,172.897211 C66.6033058,177.718492 64.1477273,182.539256 61.6916322,187.360021 C60.2221074,190.20093 61.5950413,192.52531 64.7427686,192.52531 L150.931302,192.52531 C151.572314,191.587293 152.709194,191.56405 152.709194,191.56405 C153.392562,191.60124 154.223657,192.006715 155.014463,192.52531 L158.684917,192.52531 L158.684917,176.704545 C158.684917,175.191116 159.729339,173.952479 161.006198,173.952479 C162.282541,173.952479 163.327479,175.191116 163.327479,176.704545 L163.327479,188.815083 C163.508264,188.682335 163.692149,188.555785 163.880682,188.436467 L163.880682,171.096591 C163.880682,169.853306 164.897727,168.83626 166.141529,168.83626 L166.262913,168.83626 C167.506198,168.83626 168.523244,169.853306 168.523244,171.096591 L168.523244,186.965909 C168.646178,186.96126 168.768595,186.955579 168.892045,186.955579 C168.958161,186.955579 169.022727,186.959711 169.088326,186.96126 L169.088326,174.01188 C169.088326,172.768595 170.105888,171.751033 171.349174,171.751033 L171.470558,171.751033 C172.713843,171.751033 173.730888,172.768595 173.730888,174.01188 L173.730888,188.354339 C173.923554,188.475207 174.111054,188.605372 174.295455,188.739669 L174.295455,181.063017 C174.295455,179.819731 175.3125,178.802169 176.555785,178.802169 L176.677686,178.802169 C177.920971,178.802169 178.938017,179.819731 178.938017,181.063017 L178.938017,192.52531 L192.303719,192.52531 C195.45093,192.52531 196.823864,190.20093 195.354339,187.360021 C192.89876,182.539256 190.442665,177.718492 187.987087,172.897211 C186.705062,170.418905 184.04907,168.335227 181.709194,167.842975 C181.420971,167.893595 181.126033,167.925103 180.823864,167.925103 L75.0113636,167.925103 L75.0113636,167.925103 Z M139.632231,188.351756 L115.093492,188.351756 C112.405992,188.351756 111.070248,186.693698 112.125,184.667355 C113.535124,181.81405 114.945764,178.96126 116.355888,176.107955 C117.41064,174.081095 119.391012,172.423554 120.756198,172.423554 L133.969525,172.423554 C135.335227,172.423554 137.315083,174.081612 138.369835,176.107955 C139.780475,178.96126 141.190599,181.81405 142.600723,184.667355 C143.655475,186.693698 142.319731,188.351756 139.632231,188.351756 L139.632231,188.351756 Z" id="Fill-7" fill="#CFCEC9"></path>
                    <path d="M176.677686,178.802169 L176.555785,178.802169 C175.3125,178.802169 174.295455,179.819731 174.295455,181.063017 L174.295455,188.739669 C174.111054,188.605372 173.923554,188.475207 173.730888,188.354339 L173.730888,174.01188 C173.730888,172.768595 172.713843,171.751033 171.470558,171.751033 L171.349174,171.751033 C170.105888,171.751033 169.088326,172.768595 169.088326,174.01188 L169.088326,186.96126 C169.022727,186.959711 168.958161,186.955579 168.892045,186.955579 C168.768595,186.955579 168.646178,186.96126 168.523244,186.965909 L168.523244,171.096591 C168.523244,169.853306 167.506198,168.83626 166.262913,168.83626 L166.141529,168.83626 C164.897727,168.83626 163.880682,169.853306 163.880682,171.096591 L163.880682,188.436467 C163.692149,188.555785 163.508264,188.682335 163.327479,188.815083 L163.327479,176.704545 C163.327479,175.191116 162.282541,173.952479 161.006198,173.952479 C159.729339,173.952479 158.684917,175.191116 158.684917,176.704545 L158.684917,193.455579 C158.646694,194.119835 158.552169,194.809401 158.341942,195.216426 C157.964876,194.978822 157.582128,194.648244 157.070764,194.165289 C156.549587,193.672521 155.802169,193.042355 155.014463,192.52531 C154.223657,192.006715 153.392562,191.60124 152.709194,191.56405 C152.709194,191.56405 151.572314,191.587293 150.931302,192.52531 C150.893079,192.581612 150.855888,192.639979 150.821281,192.702996 C149.898244,194.387397 151.790289,196.436467 152.509814,196.784091 C153.432335,197.229855 155.823347,199.14876 155.823347,199.14876 C157.027893,200.253099 157.939566,202.034607 158.979339,203.309401 C159.553202,204.012397 160.465909,205.402893 161.457645,206.52376 C161.654959,206.758781 161.860021,206.985021 162.073864,207.20093 C162.210227,209.151343 162.318698,211.176136 162.399793,213.257748 L174.65031,213.257748 C174.722624,211.409091 174.814566,209.602273 174.930269,207.855888 C177.384814,205.742769 178.941632,202.360537 178.941632,198.548037 C178.941632,198.416839 178.936983,198.286674 178.933368,198.156508 C178.933368,198.140496 178.938017,198.125 178.938017,198.108988 L178.938017,181.063017 C178.938017,179.819731 177.920971,178.802169 176.677686,178.802169" id="Fill-8" fill="#A08C78"></path>
                    <path d="M162.481921,236.847624 C162.447831,238.378616 162.408058,239.885331 162.365702,241.362603 L169.504132,241.362603 C171.230888,240.69938 172.938533,239.997934 174.627066,239.260847 C174.606921,238.463326 174.586777,237.659091 174.569215,236.847624 L162.481921,236.847624" id="Fill-9" fill="#A08C78"></path>
                    <path d="M162.289256,243.886364 C164.02686,243.33936 165.748967,242.756715 167.452479,242.136364 L162.343492,242.136364 C162.32593,242.725723 162.307851,243.308884 162.289256,243.886364" id="Fill-10" fill="#A08C78"></path>
                    <path d="M162.580579,231.149793 L174.470041,231.149793 C174.419421,226.994835 174.418388,222.774277 174.496901,218.664256 L162.553719,218.664256 C162.632231,222.775826 162.631198,226.996384 162.580579,231.149793" id="Fill-11" fill="#A08C78"></path>
                    <path d="M162.497934,236.073864 L174.552686,236.073864 C174.52376,234.704029 174.499483,233.318182 174.480372,231.923554 L162.570248,231.923554 C162.551136,233.318698 162.52686,234.704029 162.497934,236.073864" id="Fill-12" fill="#A08C78"></path>
                    <path d="M161.470041,218.664256 L175.894112,218.664256 L175.894112,213.257748 L161.470041,213.257748 L161.470041,218.664256 Z" id="Fill-13" fill="#32312D"></path>
                    <path d="M161.338326,231.149793 C161.123967,231.149793 160.951446,231.322831 160.951446,231.536674 C160.951446,231.750517 161.123967,231.923554 161.338326,231.923554 L175.884298,231.923554 C176.09814,231.923554 176.271178,231.750517 176.271178,231.536674 C176.271178,231.322831 176.09814,231.149793 175.884298,231.149793 L161.338326,231.149793" id="Fill-14" fill="#3F3424"></path>
                    <path d="M161.338326,236.073864 C161.123967,236.073864 160.951446,236.246901 160.951446,236.460744 C160.951446,236.674587 161.123967,236.847624 161.338326,236.847624 L175.884298,236.847624 C176.09814,236.847624 176.271178,236.674587 176.271178,236.460744 C176.271178,236.246901 176.09814,236.073864 175.884298,236.073864 L161.338326,236.073864" id="Fill-15" fill="#3F3424"></path>
                    <path d="M161.338326,241.362603 C161.123967,241.362603 160.951446,241.53564 160.951446,241.749483 C160.951446,241.963326 161.123967,242.136364 161.338326,242.136364 L167.452479,242.136364 C168.139979,241.886364 168.822314,241.625 169.504132,241.362603 L161.338326,241.362603" id="Fill-16" fill="#3F3424"></path>
                    <path d="M72.6585744,214.449897 C72.8465909,214.569731 73.0309917,214.696281 73.2117769,214.828512 L73.2117769,202.717975 C73.2117769,201.204545 74.2561983,199.966426 75.5330579,199.966426 C76.8099174,199.966426 77.8543388,201.204545 77.8543388,202.717975 L77.8543388,218.987087 C78.1947314,218.355372 78.6188017,217.667355 79.0841942,217.082645 L80.2618802,202.784607 C80.4953512,199.953512 78.3698347,197.445764 75.5382231,197.21281 L72.6446281,196.974174 C72.6472107,197.020145 72.6585744,197.063533 72.6585744,197.110537 L72.6585744,214.449897" id="Fill-17" fill="#E8E7E3"></path>
                    <path d="M62.2438017,207.076446 L62.2438017,214.753616 C62.4282025,214.619318 62.615186,214.489153 62.8078512,214.368285 L62.8078512,200.02531 C62.8078512,198.782025 63.8254132,197.764979 65.0686983,197.764979 L65.1900826,197.764979 C66.4333678,197.764979 67.4504132,198.782025 67.4504132,200.02531 L67.4504132,212.975207 C67.5160124,212.973657 67.581095,212.969525 67.6472107,212.969525 C67.7706612,212.969525 67.8930785,212.975207 68.0154959,212.979855 L68.0154959,197.110537 C68.0154959,196.933368 68.0413223,196.76343 68.080062,196.59814 L66.5346074,196.470558 C63.7029959,196.237603 61.1957645,198.36312 60.9622934,201.194215 L60.6544421,204.930269 C61.5702479,205.219008 62.2438017,206.068182 62.2438017,207.076446" id="Fill-18" fill="#E8E7E3"></path>
                    <path d="M78.7231405,228.653926 C79.2133264,227.083678 79.713843,225.514463 80.4204545,224.040806 C80.4204545,224.040806 81.9245868,221.369318 82.6146694,220.612087 C83.1528926,220.021178 84.1451446,217.414773 82.6616736,216.195764 C81.6802686,215.389463 80.4850207,215.841942 80.4850207,215.841942 C80.0056818,216.065599 79.526343,216.52686 79.0841942,217.082645 C78.6188017,217.667355 78.1947314,218.355372 77.8543388,218.987087 L77.8543388,202.717975 C77.8543388,201.204545 76.8099174,199.966426 75.5330579,199.966426 C74.2561983,199.966426 73.2117769,201.204545 73.2117769,202.717975 L73.2117769,214.828512 C73.0309917,214.696281 72.8465909,214.569731 72.6585744,214.449897 L72.6585744,197.110537 C72.6585744,197.063533 72.6472107,197.020145 72.6446281,196.974174 C72.572314,195.794938 71.5945248,194.84969 70.3977273,194.84969 L70.276343,194.84969 C69.2097107,194.84969 68.3145661,195.600207 68.080062,196.59814 C68.0413223,196.76343 68.0154959,196.933368 68.0154959,197.110537 L68.0154959,212.979855 C67.8930785,212.975207 67.7706612,212.969525 67.6472107,212.969525 C67.581095,212.969525 67.5160124,212.973657 67.4504132,212.975207 L67.4504132,200.02531 C67.4504132,198.782025 66.4333678,197.764979 65.1900826,197.764979 L65.0686983,197.764979 C63.8254132,197.764979 62.8078512,198.782025 62.8078512,200.02531 L62.8078512,214.368285 C62.615186,214.489153 62.4282025,214.619318 62.2438017,214.753616 L62.2438017,207.076446 C62.2438017,206.068182 61.5702479,205.219008 60.6544421,204.930269 C60.4411157,204.862603 60.2184917,204.816116 59.9829545,204.816116 L59.8615702,204.816116 C58.6182851,204.816116 57.6012397,205.833161 57.6012397,207.076446 L57.6012397,224.122934 C57.6012397,224.138946 57.6053719,224.154442 57.6058884,224.170455 C57.6022727,224.30062 57.597624,224.430785 57.597624,224.561467 C57.597624,226.97624 58.222624,229.217975 59.303719,231.07438 C64.0495868,234.007231 69.0056818,236.630682 74.1456612,238.916322 C74.2159091,237.23657 74.3047521,235.563533 74.4152893,233.907025 C75.8073347,232.279442 78.3326446,229.904442 78.7231405,228.653926" id="Fill-19" fill="#A08C78"></path>
                    <path d="M40.8445248,170.009814 L17.6007231,170.009814 L14.6642562,183.532025 C16.5464876,187.058368 18.5924587,190.482955 20.7933884,193.797004 L46.009814,193.797004 L40.8445248,170.009814" id="Fill-20" fill="#FFFFFF"></path>
                    <path d="M180.823864,90.9622934 L74.418905,90.9622934 C71.5779959,90.9622934 69.2536157,93.2866736 69.2536157,96.1275826 L69.2536157,162.759814 C69.2536157,165.600723 71.5779959,167.925103 74.418905,167.925103 L180.823864,167.925103 C181.126033,167.925103 181.420971,167.893595 181.709194,167.842975 C184.131198,167.418905 185.989153,165.298554 185.989153,162.759814 L185.989153,96.1275826 C185.989153,93.2866736 183.664773,90.9622934 180.823864,90.9622934 L180.823864,90.9622934 Z M180.052686,157.442149 C180.052686,159.934401 178.013946,161.97314 175.522211,161.97314 L79.7205579,161.97314 C77.2283058,161.97314 75.1895661,159.934401 75.1895661,157.442149 L75.1895661,101.444731 C75.1895661,98.9529959 77.2283058,96.9142562 79.7205579,96.9142562 L175.522211,96.9142562 C178.013946,96.9142562 180.052686,98.9529959 180.052686,101.444731 L180.052686,157.442149 L180.052686,157.442149 Z" id="Fill-21" fill="#363E39"></path>
                    <path d="M175.522211,96.9142562 L79.7205579,96.9142562 C77.2283058,96.9142562 75.1895661,98.9529959 75.1895661,101.444731 L75.1895661,157.442149 C75.1895661,159.934401 77.2283058,161.97314 79.7205579,161.97314 L94.5123967,161.97314 L94.5123967,107.213326 C94.5123967,105.375 96.0170455,103.870868 97.8553719,103.870868 L157.024277,103.870868 C158.862603,103.870868 160.366736,105.375 160.366736,107.213326 L160.366736,161.97314 L175.522211,161.97314 C178.013946,161.97314 180.052686,159.934401 180.052686,157.442149 L180.052686,101.444731 C180.052686,98.9529959 178.013946,96.9142562 175.522211,96.9142562 L175.522211,96.9142562 Z M80.3589876,120.529442 L84.491219,120.529442 L84.491219,124.661674 L80.3589876,124.661674 L80.3589876,120.529442 Z M80.3589876,112.781508 L84.491219,112.781508 L84.491219,116.91374 L80.3589876,116.91374 L80.3589876,112.781508 Z M163.26188,136.02531 L167.394112,136.02531 L167.394112,140.157541 L163.26188,140.157541 L163.26188,136.02531 Z M163.26188,128.277376 L167.394112,128.277376 L167.394112,132.409607 L163.26188,132.409607 L163.26188,128.277376 Z M163.26188,120.529442 L167.394112,120.529442 L167.394112,124.661674 L163.26188,124.661674 L163.26188,120.529442 Z M163.26188,112.781508 L167.394112,112.781508 L167.394112,116.91374 L163.26188,116.91374 L163.26188,112.781508 Z M172.306818,158.069731 C171.020145,158.069731 169.976756,157.026343 169.976756,155.739153 C169.976756,154.452479 171.020145,153.409091 172.306818,153.409091 C173.594008,153.409091 174.63688,154.452479 174.63688,155.739153 C174.63688,157.026343 173.594008,158.069731 172.306818,158.069731 L172.306818,158.069731 Z M171.009814,136.02531 L175.142045,136.02531 L175.142045,140.157541 L171.009814,140.157541 L171.009814,136.02531 Z M171.009814,128.277376 L175.142045,128.277376 L175.142045,132.409607 L171.009814,132.409607 L171.009814,128.277376 Z M171.009814,120.529442 L175.142045,120.529442 L175.142045,124.661674 L171.009814,124.661674 L171.009814,120.529442 Z M171.009814,112.781508 L175.142045,112.781508 L175.142045,116.91374 L171.009814,116.91374 L171.009814,112.781508 Z" id="Fill-22" fill="#4E4F4C"></path>
                    <path d="M172.306818,158.069731 C173.594008,158.069731 174.63688,157.026343 174.63688,155.739153 C174.63688,154.452479 173.594008,153.409091 172.306818,153.409091 C171.020145,153.409091 169.976756,154.452479 169.976756,155.739153 C169.976756,157.026343 171.020145,158.069731 172.306818,158.069731" id="Fill-23" fill="#CD292D"></path>
                    <path d="M157.024277,103.870868 L97.8553719,103.870868 C96.0170455,103.870868 94.5123967,105.375 94.5123967,107.213326 L160.366736,107.213326 C160.366736,105.375 158.862603,103.870868 157.024277,103.870868" id="Fill-24" fill="#CDCDC8"></path>
                    <path d="M94.5123967,161.97314 L160.366736,161.97314 L160.366736,107.213326 L94.5123967,107.213326 L94.5123967,161.97314 Z M127.36312,151.459194 C118.565599,151.459194 111.434401,144.327479 111.434401,135.530475 C111.434401,126.733471 118.565599,119.601756 127.36312,119.601756 C136.160124,119.601756 143.291322,126.733471 143.291322,135.530475 C143.291322,144.327479 136.160124,151.459194 127.36312,151.459194 L127.36312,151.459194 Z" id="Fill-25" fill="#F2EFED"></path>
                    <path d="M127.36312,119.601756 C118.565599,119.601756 111.434401,126.733471 111.434401,135.530475 C111.434401,144.327479 118.565599,151.459194 127.36312,151.459194 C136.160124,151.459194 143.291322,144.327479 143.291322,135.530475 C143.291322,126.733471 136.160124,119.601756 127.36312,119.601756 L127.36312,119.601756 Z M134.529959,130.78564 L128.043905,142.159091 C127.889463,142.430269 127.672521,142.641529 127.42562,142.80062 C127.422521,142.802686 127.418905,142.804752 127.415806,142.806818 C127.321281,142.867252 127.223657,142.918905 127.120868,142.96126 C127.095041,142.972624 127.068698,142.981405 127.042355,142.991219 C126.960744,143.020661 126.878616,143.045971 126.793388,143.064566 C126.747934,143.074897 126.702479,143.081612 126.657025,143.088326 C126.588843,143.097624 126.521694,143.105372 126.452996,143.107438 C126.38843,143.110021 126.32438,143.107955 126.259814,143.103822 C126.210744,143.100207 126.161674,143.097107 126.112087,143.089876 C126.023244,143.077479 125.936983,143.056818 125.850207,143.032025 C125.826963,143.02531 125.803202,143.019628 125.779959,143.011364 C125.507748,142.922004 125.249483,142.77686 125.034091,142.56095 L120.50155,138.028409 C119.762913,137.289773 119.762913,136.081095 120.50155,135.342459 C121.240186,134.603822 122.448864,134.603822 123.1875,135.342459 L125.971074,138.12655 L131.231405,128.90186 C131.749483,127.994835 132.915289,127.676653 133.822314,128.194731 C134.729339,128.712293 135.048037,129.878616 134.529959,130.78564 L134.529959,130.78564 Z" id="Fill-26" fill="#439C45"></path>
                    <path d="M133.822314,128.194731 C132.915289,127.676653 131.749483,127.994835 131.231405,128.90186 L125.971074,138.12655 L123.1875,135.342459 C122.448864,134.603822 121.240186,134.603822 120.50155,135.342459 C119.762913,136.081095 119.762913,137.289773 120.50155,138.028409 L125.034091,142.56095 C125.249483,142.77686 125.507748,142.922004 125.779959,143.011364 C125.803202,143.019628 125.826963,143.02531 125.850207,143.032025 C125.936983,143.056818 126.023244,143.077479 126.112087,143.089876 C126.161674,143.097107 126.210744,143.100207 126.259814,143.103822 C126.32438,143.107955 126.38843,143.110021 126.452996,143.107438 C126.521694,143.105372 126.588843,143.097624 126.657025,143.088326 C126.702479,143.081612 126.747934,143.074897 126.793388,143.064566 C126.878616,143.045971 126.960744,143.020661 127.042355,142.991219 C127.068698,142.981405 127.095041,142.972624 127.120868,142.96126 C127.223657,142.918905 127.321281,142.867252 127.415806,142.806818 C127.418905,142.804752 127.422521,142.802686 127.42562,142.80062 C127.672521,142.641529 127.889463,142.430269 128.043905,142.159091 L134.529959,130.78564 C135.048037,129.878616 134.729339,128.712293 133.822314,128.194731" id="Fill-27" fill="#FFFFFF"></path>
                    <path d="M171.009814,112.781508 L175.142045,112.781508 L175.142045,116.91374 L171.009814,116.91374 L171.009814,112.781508 Z" id="Fill-28" fill="#7A7D79"></path>
                    <path d="M163.26188,112.781508 L167.394112,112.781508 L167.394112,116.91374 L163.26188,116.91374 L163.26188,112.781508 Z" id="Fill-29" fill="#7A7D79"></path>
                    <path d="M80.3589876,112.781508 L84.491219,112.781508 L84.491219,116.91374 L80.3589876,116.91374 L80.3589876,112.781508 Z" id="Fill-30" fill="#7A7D79"></path>
                    <path d="M80.3589876,120.529442 L84.491219,120.529442 L84.491219,124.661674 L80.3589876,124.661674 L80.3589876,120.529442 Z" id="Fill-31" fill="#7A7D79"></path>
                    <path d="M163.26188,120.529442 L167.394112,120.529442 L167.394112,124.661674 L163.26188,124.661674 L163.26188,120.529442 Z" id="Fill-32" fill="#7A7D79"></path>
                    <path d="M163.26188,128.277376 L167.394112,128.277376 L167.394112,132.409607 L163.26188,132.409607 L163.26188,128.277376 Z" id="Fill-33" fill="#7A7D79"></path>
                    <path d="M163.26188,136.02531 L167.394112,136.02531 L167.394112,140.157541 L163.26188,140.157541 L163.26188,136.02531 Z" id="Fill-34" fill="#7A7D79"></path>
                    <path d="M171.009814,120.529442 L175.142045,120.529442 L175.142045,124.661674 L171.009814,124.661674 L171.009814,120.529442 Z" id="Fill-35" fill="#7A7D79"></path>
                    <path d="M171.009814,128.277376 L175.142045,128.277376 L175.142045,132.409607 L171.009814,132.409607 L171.009814,128.277376 Z" id="Fill-36" fill="#7A7D79"></path>
                    <path d="M171.009814,136.02531 L175.142045,136.02531 L175.142045,140.157541 L171.009814,140.157541 L171.009814,136.02531 Z" id="Fill-37" fill="#7A7D79"></path>
                    <path d="M138.369835,176.107955 C137.315083,174.081612 135.335227,172.423554 133.969525,172.423554 L120.756198,172.423554 C119.391012,172.423554 117.41064,174.081095 116.355888,176.107955 C114.945764,178.96126 113.535124,181.81405 112.125,184.667355 C111.070248,186.693698 112.405992,188.351756 115.093492,188.351756 L139.632231,188.351756 C142.319731,188.351756 143.655475,186.693698 142.600723,184.667355 C141.190599,181.81405 139.780475,178.96126 138.369835,176.107955" id="Fill-38" fill="#CECEC9"></path>
                    <path d="M138.369835,176.107955 C137.315083,174.081612 135.335227,172.423554 133.969525,172.423554 L120.756198,172.423554 C119.391012,172.423554 117.41064,174.081095 116.355888,176.107955 C114.945764,178.96126 113.535124,181.81405 112.125,184.667355 C111.070248,186.693698 112.405992,188.351756 115.093492,188.351756 L139.632231,188.351756 C142.319731,188.351756 143.655475,186.693698 142.600723,184.667355 C141.190599,181.81405 139.780475,178.96126 138.369835,176.107955" id="Fill-68" fill="#B5B6B3"></path>
                </g>
            </g>
        </g>
    </g>
</svg>