<?xml version="1.0" encoding="UTF-8" standalone="no"?>
<svg width="22px" height="17px" viewBox="0 0 22 17" version="1.1" xmlns="http://www.w3.org/2000/svg" xmlns:xlink="http://www.w3.org/1999/xlink" xmlns:sketch="http://www.bohemiancoding.com/sketch/ns">
    <!-- Generator: Sketch 3.3.1 (12005) - http://www.bohemiancoding.com/sketch -->
    <title>Shape 4</title>
    <desc>Created with Sketch.</desc>
    <defs></defs>
    <g id="Marketing" stroke="none" stroke-width="1" fill="none" fill-rule="evenodd" sketch:type="MSPage">
        <g sketch:type="MSArtboardGroup" transform="translate(-622.000000, -6829.000000)" id="BLOCK---8" fill="#FFFFFF">
            <g sketch:type="MSLayerGroup" transform="translate(-1.000000, 5959.000000)">
                <g id="Group" transform="translate(222.000000, 706.000000)" sketch:type="MSShapeGroup">
                    <g id="Share-on-Twitter-+-Shape-4" transform="translate(401.000000, 162.000000)">
                        <path d="M21.7122004,3.99000716 C20.9426166,4.33128702 20.1164557,4.561685 19.2487142,4.66552315 C20.1344059,4.13474436 20.8144662,3.29426886 21.1348421,2.29292376 C20.3059547,2.7841668 19.3879982,3.14112463 18.4114197,3.33357739 C17.6291118,2.4999184 16.5141582,1.97936437 15.2810518,1.97936437 C12.9125423,1.97936437 10.9923319,3.89934759 10.9923319,6.26785708 C10.9923319,6.60391095 11.0300499,6.93133058 11.1032138,7.24511719 C7.53908868,7.06652466 4.37804647,5.35898928 2.26356553,2.76417171 C1.89433798,3.39765257 1.68257179,4.13428992 1.68257179,4.92023335 C1.68257179,6.40804994 2.43965866,7.72045505 3.5902853,8.48981164 C2.88773049,8.46754438 2.22607473,8.27509162 1.64780759,7.95380686 C1.64735316,7.97152978 1.64735316,7.9892527 1.64735316,8.00743006 C1.64735316,10.0855563 3.12608107,11.8187672 5.087645,12.2127614 C4.72818779,12.3109191 4.34918991,12.3634062 3.95769511,12.3634062 C3.68162651,12.3634062 3.4132833,12.3365946 3.15084772,12.2863797 C3.69662283,13.9900524 5.28100663,15.2302025 7.1573642,15.2645122 C5.68931549,16.4149116 3.84045116,17.1006524 1.83117167,17.1006524 C1.48512026,17.1006524 1.1438404,17.0802029 0.80824096,17.0399855 C2.70595693,18.2571867 4.95972186,18.9674669 7.3825362,18.9674669 C15.2708271,18.9674669 19.5847681,12.4320257 19.5847681,6.76455334 C19.5847681,6.57914431 19.5806782,6.39396249 19.5722711,6.20968955 C20.41002,5.60574689 21.1368871,4.85047775 21.7122004,3.99000716 L21.7122004,3.99000716 Z" id="Shape-4"></path>
                    </g>
                </g>
            </g>
        </g>
    </g>
</svg>