<?xml version="1.0" encoding="UTF-8" standalone="no"?>
<svg width="21px" height="18px" viewBox="0 0 21 18" version="1.1" xmlns="http://www.w3.org/2000/svg" xmlns:xlink="http://www.w3.org/1999/xlink" xmlns:sketch="http://www.bohemiancoding.com/sketch/ns">
    <!-- Generator: Sketch 3.3.1 (12005) - http://www.bohemiancoding.com/sketch -->
    <title>twitter</title>
    <desc>Created with Sketch.</desc>
    <defs></defs>
    <g id="Marketing" stroke="none" stroke-width="1" fill="none" fill-rule="evenodd" sketch:type="MSPage">
        <g sketch:type="MSArtboardGroup" transform="translate(-1209.000000, -1440.000000)" id="BOTTOM-BAR" fill="#3B94CB">
            <g sketch:type="MSLayerGroup" transform="translate(-12.500000, 1418.500000)">
                <path d="M1242.40396,23.8037004 C1241.63438,24.1449802 1240.80821,24.3753782 1239.94047,24.4792164 C1240.82616,23.9484376 1241.50623,23.1079621 1241.8266,22.106617 C1240.99771,22.59786 1240.07976,22.9548179 1239.10318,23.1472706 C1238.32087,22.3136116 1237.20592,21.7930576 1235.97281,21.7930576 C1233.6043,21.7930576 1231.68409,23.7130408 1231.68409,26.0815503 C1231.68409,26.4176042 1231.72181,26.7450238 1231.79497,27.0588104 C1228.23085,26.8802179 1225.06981,25.1726825 1222.95532,22.5778649 C1222.5861,23.2113458 1222.37433,23.9479831 1222.37433,24.7339266 C1222.37433,26.2217432 1223.13142,27.5341483 1224.28204,28.3035049 C1223.57949,28.2812376 1222.91783,28.0887848 1222.33957,27.7675001 C1222.33911,27.785223 1222.33911,27.8029459 1222.33911,27.8211233 C1222.33911,29.8992495 1223.81784,31.6324604 1225.7794,32.0264546 C1225.41995,32.1246123 1225.04095,32.1770994 1224.64945,32.1770994 C1224.37339,32.1770994 1224.10504,32.1502878 1223.84261,32.1000729 C1224.38838,33.8037456 1225.97277,35.0438957 1227.84912,35.0782055 C1226.38107,36.2286049 1224.53221,36.9143456 1222.52293,36.9143456 C1222.17688,36.9143456 1221.8356,36.8938961 1221.5,36.8536787 C1223.39772,38.0708799 1225.65148,38.7811601 1228.0743,38.7811601 C1235.96259,38.7811601 1240.27653,32.245719 1240.27653,26.5782466 C1240.27653,26.3928375 1240.27244,26.2076557 1240.26403,26.0233828 C1241.10178,25.4194401 1241.82865,24.664171 1242.40396,23.8037004 L1242.40396,23.8037004 Z" id="twitter" sketch:type="MSShapeGroup"></path>
            </g>
        </g>
    </g>
</svg>