<?xml version="1.0" encoding="UTF-8" standalone="no"?>
<svg width="250px" height="250px" viewBox="0 0 250 250" version="1.1" xmlns="http://www.w3.org/2000/svg" xmlns:xlink="http://www.w3.org/1999/xlink" xmlns:sketch="http://www.bohemiancoding.com/sketch/ns">
    <!-- Generator: Sketch 3.3.1 (12005) - http://www.bohemiancoding.com/sketch -->
    <title>ill-user</title>
    <desc>Created with Sketch.</desc>
    <defs></defs>
    <g id="Marketing" stroke="none" stroke-width="1" fill="none" fill-rule="evenodd" sketch:type="MSPage">
        <g sketch:type="MSArtboardGroup" transform="translate(-226.000000, -5154.000000)" id="BLOCK---7">
            <g sketch:type="MSLayerGroup" transform="translate(1.000000, 5022.000000)">
                <g id="ill-user" transform="translate(225.000000, 132.000000)" sketch:type="MSShapeGroup">
                    <path d="M196.263946,22.7267562 L177.801653,22.7267562 L156.177169,54.2350207 L227.76343,54.2350207 C219.233988,41.9426653 208.553719,31.2592975 196.263946,22.7267562" id="Fill-1" fill="#D67E40"></path>
                    <path d="M116.668388,160.030475 L83.5692149,160.030475 L79.9886364,165.247934 L116.487603,165.247934 C116.548037,163.508781 116.607955,161.769628 116.668388,160.030475" id="Fill-2" fill="#8ACAB7"></path>
                    <path d="M133.572831,165.247934 L208.085744,165.247934 L208.342975,164.604339 L223.053719,165.211777 L223.04907,165.247934 L243.404959,165.247934 C243.987603,163.525826 244.527893,161.785124 245.036157,160.030475 L133.392045,160.030475 C133.452479,161.769628 133.512397,163.508781 133.572831,165.247934" id="Fill-3" fill="#8ACAB7"></path>
                    <path d="M177.801653,22.7267562 L196.263946,22.7267562 C195.080062,21.9044421 193.884814,21.097624 192.671488,20.3161157 L179.456095,20.3161157 L177.801653,22.7267562" id="Fill-4" fill="#D67E40"></path>
                    <path d="M192.671488,20.3161157 L179.456095,20.3161157 L177.801653,22.7267562 L196.263946,22.7267562 C195.080062,21.9044421 193.884814,21.097624 192.671488,20.3161157" id="Fill-5" fill="#B8713E"></path>
                    <path d="M192.671488,20.3161157 C189.615186,18.347624 186.46436,16.5139463 183.232955,14.8130165 L179.456095,20.3161157 L192.671488,20.3161157" id="Fill-6" fill="#A9642F"></path>
                    <path d="M161.556302,217.139463 C161.623967,217.139463 161.690599,217.143595 161.757748,217.145145 L161.757748,211.431818 L161.178202,211.431818 L161.178202,217.15031 C161.303719,217.145145 161.429236,217.139463 161.556302,217.139463" id="Fill-7" fill="#91C8B8"></path>
                    <path d="M167.095041,218.968492 L167.095041,211.431818 L166.516529,211.431818 L166.516529,218.573347 C166.71436,218.697314 166.905992,218.830579 167.095041,218.968492" id="Fill-8" fill="#91C8B8"></path>
                    <path d="M90.9385331,214.842975 C91.1745868,214.981921 91.3352273,215.235537 91.3352273,215.527376 C91.3352273,215.819215 91.1745868,216.072831 90.9385331,216.211777 L90.9385331,217.145145 C91.0061983,217.143595 91.072314,217.139463 91.1399793,217.139463 C91.2670455,217.139463 91.392562,217.145145 91.5180785,217.15031 L91.5180785,211.431818 L90.9385331,211.431818 L90.9385331,214.842975" id="Fill-9" fill="#91C8B8"></path>
                    <path d="M96.277376,218.657541 C96.4705579,218.779959 96.6590909,218.909607 96.8445248,219.045455 L96.8445248,211.431818 L96.277376,211.431818 L96.277376,218.657541" id="Fill-10" fill="#91C8B8"></path>
                    <path d="M222.723657,167.748967 L223.828512,167.794421 L222.86157,175.232438 L206.175103,174.543388 L207.178719,172.034091 L205.40031,171.960744 L208.085744,165.247934 L133.572831,165.247934 C133.635847,167.065599 133.698864,168.882748 133.761364,170.700413 L188.868285,170.700413 C190.646694,170.700413 192.102273,172.155992 192.102273,173.934401 C192.102273,175.713326 190.646694,177.168905 188.868285,177.168905 L71.8073347,177.168905 L43.5020661,218.411674 L43.7443182,219.722107 C55.6477273,229.996901 69.5149793,238.056818 84.7055785,243.269628 C84.6296488,241.490702 84.535124,239.753099 84.418905,238.070764 C82.2128099,235.891012 80.8383264,232.647727 80.8383264,229.022727 C80.8383264,228.88843 80.8429752,228.755165 80.8471074,228.621901 L80.8419421,228.572831 L80.8419421,211.431818 L65.1740702,211.431818 C62.0268595,211.431818 60.6539256,209.107438 62.1234504,206.266529 C64.5790289,201.445764 67.0346074,196.625 69.4907025,191.803719 C70.9602273,188.96281 74.2360537,186.63843 76.7706612,186.63843 L181.13843,186.63843 C183.673037,186.63843 186.94938,188.96281 188.418388,191.803719 C190.874483,196.625 193.330062,201.445764 195.78564,206.266529 C197.255682,209.107438 195.882748,211.431818 192.735021,211.431818 L171.854339,211.431818 L171.854339,228.572831 L171.849174,228.621901 C171.853306,228.755165 171.857955,228.88843 171.857955,229.022727 C171.857955,232.647727 170.483988,235.891012 168.277376,238.070764 C168.264463,238.259814 168.25,238.445248 168.237087,238.635847 L168.513946,238.635847 L168.513946,242.273244 C183.662707,236.665806 197.426653,228.203512 209.148244,217.535124 L200.213326,201.598657 C200.885331,199.175103 202.128099,194.710227 202.805269,192.288223 L230.202996,176.928202 L234.733988,185.010331 C238.167355,178.730372 241.079029,172.124483 243.404959,165.247934 L223.04907,165.247934 L222.723657,167.748967 M145.743802,181.688533 C145.743802,182.043388 145.452996,182.334194 145.09814,182.334194 L125.360537,182.334194 C125.182851,182.334194 125.021178,182.260847 124.903926,182.143079 C123.500517,182.026343 122.145661,181.865186 122.145661,181.688533 C122.145661,181.511364 123.500517,181.350723 124.903926,181.233471 C125.021178,181.116219 125.182851,181.042872 125.360537,181.042872 L145.09814,181.042872 C145.452996,181.042872 145.743802,181.333161 145.743802,181.688533" id="Fill-11" fill="#91C8B8"></path>
                    <path d="M116.487603,165.247934 L79.9886364,165.247934 L76.2463843,170.700413 L116.29907,170.700413 C116.362087,168.882748 116.424587,167.065599 116.487603,165.247934" id="Fill-12" fill="#91C8B8"></path>
                    <path d="M156.419421,218.657541 L156.419421,211.431818 L155.851756,211.431818 L155.851756,219.045455 C156.03719,218.909607 156.22624,218.779959 156.419421,218.657541" id="Fill-13" fill="#91C8B8"></path>
                    <path d="M155.115702,238.635847 C155.110537,238.554236 155.104339,238.47469 155.098657,238.393595 C154.101756,237.51343 153.247417,236.436467 152.585227,235.21126 C152.017562,234.393595 151.522211,233.643079 151.175103,233.217459 C150.108988,231.91064 149.512913,230.698347 148.277893,229.566116 C148.277893,229.566116 146.603822,227.577996 145.65031,227.13688 C144.581612,226.642562 142.085744,224.757748 143.032025,223.030992 C143.657541,221.889463 144.967459,221.863636 144.967459,221.863636 C146.365702,221.940083 148.367769,223.518595 149.438017,224.529959 C149.962293,225.02531 150.354855,225.363636 150.741219,225.607438 C150.957128,225.190083 151.053719,224.483988 151.092975,223.802686 L151.092975,211.431818 L101.603822,211.431818 L101.603822,223.802686 C101.643079,224.483988 101.739669,225.190083 101.955062,225.607438 C102.341426,225.363636 102.733988,225.02531 103.258264,224.529959 C104.328512,223.518595 106.330579,221.940083 107.728822,221.863636 C107.728822,221.863636 109.039256,221.889463 109.664773,223.030992 C110.610537,224.757748 108.114669,226.642562 107.045971,227.13688 C106.092975,227.577996 104.418388,229.566116 104.418388,229.566116 C103.183368,230.698347 102.587293,231.91064 101.521178,233.217459 C101.17407,233.643079 100.679236,234.393595 100.11157,235.21126 C99.4488636,236.436467 98.5945248,237.51343 97.597624,238.393595 C97.4741736,240.237603 97.3755165,242.145661 97.2990702,244.101756 L98.956095,244.101756 C99.3166322,244.101756 99.6120868,244.397211 99.6120868,244.757748 C99.6120868,245.118285 99.3166322,245.41374 98.956095,245.41374 L97.2525826,245.41374 C97.2365702,245.887397 97.2215909,246.36312 97.2081612,246.841426 C106.210227,248.906508 115.583161,249.999483 125.211777,249.999483 C135.139463,249.999483 144.793388,248.833678 154.051136,246.642045 L154.051136,238.635847 L155.115702,238.635847" id="Fill-14" fill="#91C8B8"></path>
                    <path d="M85.7830579,215.527376 C85.7830579,215.235537 85.9436983,214.981921 86.1797521,214.842975 L86.1797521,211.431818 L85.6012397,211.431818 L85.6012397,218.968492 C85.7902893,218.830579 85.9819215,218.697314 86.1797521,218.573347 L86.1797521,216.211777 C85.9436983,216.072831 85.7830579,215.819215 85.7830579,215.527376" id="Fill-15" fill="#91C8B8"></path>
                    <path d="M43.0320248,219.096591 C43.2696281,219.305269 43.5051653,219.515496 43.7443182,219.722107 L43.5020661,218.411674 L43.0320248,219.096591" id="Fill-16" fill="#E3E3DE"></path>
                    <path d="M202.805269,192.288223 L205.956612,198.379132 L200.213326,201.598657 L209.148244,217.535124 C219.376033,208.22624 228.048037,197.239153 234.733988,185.010331 L230.202996,176.928202 L202.805269,192.288223" id="Fill-17" fill="#E3E3DE"></path>
                    <path d="M202.805269,192.288223 C202.128099,194.710227 200.885331,199.175103 200.213326,201.598657 L205.956612,198.379132 L202.805269,192.288223" id="Fill-18" fill="#F6F5F4"></path>
                    <path d="M177.801653,22.7267562 L54.1590909,22.7267562 C41.8698347,31.2592975 31.1890496,41.9426653 22.660124,54.2350207 L156.177169,54.2350207 L177.801653,22.7267562" id="Fill-19" fill="#D67E40"></path>
                    <path d="M177.801653,22.7267562 L54.1590909,22.7267562 C41.8698347,31.2592975 31.1890496,41.9426653 22.660124,54.2350207 L156.177169,54.2350207 L177.801653,22.7267562" id="Fill-20" fill="#C5773E"></path>
                    <path d="M83.5692149,160.030475 L5.38739669,160.030475 C5.89566116,161.785124 6.43595041,163.525826 7.01807851,165.247934 L79.9886364,165.247934 L83.5692149,160.030475" id="Fill-21" fill="#8ACAB7"></path>
                    <path d="M83.5692149,160.030475 L5.38739669,160.030475 C5.89566116,161.785124 6.43595041,163.525826 7.01807851,165.247934 L79.9886364,165.247934 L83.5692149,160.030475" id="Fill-22" fill="#82BBAA"></path>
                    <path d="M179.456095,20.3161157 L57.7515496,20.3161157 C56.5387397,21.097624 55.3434917,21.9044421 54.1590909,22.7267562 L177.801653,22.7267562 L179.456095,20.3161157" id="Fill-23" fill="#D67E40"></path>
                    <path d="M179.456095,20.3161157 L57.7515496,20.3161157 C56.5387397,21.097624 55.3434917,21.9044421 54.1590909,22.7267562 L177.801653,22.7267562 L179.456095,20.3161157" id="Fill-24" fill="#AB6B3D"></path>
                    <path d="M183.232955,14.8130165 C165.899277,5.68801653 146.161157,0.516012397 125.211777,0.516012397 C100.356405,0.516012397 77.2009298,7.78770661 57.7515496,20.3161157 L179.456095,20.3161157 L183.232955,14.8130165" id="Fill-25" fill="#A9642F"></path>
                    <path d="M125.211777,0.516012397 C100.356405,0.516012397 77.2009298,7.78770661 57.7515496,20.3161157 L179.456095,20.3161157 L183.232955,14.8130165 C165.899277,5.68801653 146.161157,0.516012397 125.211777,0.516012397" id="Fill-26" fill="#9E6030"></path>
                    <path d="M28.6120868,179.646178 L32.3558884,179.80062 L33.5278926,176.479855 L56.5996901,176.479855 L55.5661157,188.188017 L50.6771694,188.188017 L50.1487603,192.253099 L38.5764463,191.775826 L43.5020661,218.411674 L71.8073347,177.168905 L69.0408058,177.168905 C67.2623967,177.168905 65.8068182,175.713326 65.8068182,173.934401 C65.8068182,172.155992 67.2623967,170.700413 69.0408058,170.700413 L76.2463843,170.700413 L79.9886364,165.247934 L7.01807851,165.247934 C9.56095041,172.765496 12.8063017,179.959194 16.6663223,186.757748 L25.3150826,187.88688 L28.6120868,179.646178" id="Fill-27" fill="#91C8B8"></path>
                    <path d="M79.9886364,165.247934 L7.01807851,165.247934 C9.56095041,172.765496 12.8063017,179.959194 16.6663223,186.757748 L25.3150826,187.88688 L28.6120868,179.646178 L32.3558884,179.80062 L33.5278926,176.479855 L56.5996901,176.479855 L55.5661157,188.188017 L50.6771694,188.188017 L50.1487603,192.253099 L38.5764463,191.775826 L43.5020661,218.411674 L71.8073347,177.168905 L69.0408058,177.168905 C67.2623967,177.168905 65.8068182,175.713326 65.8068182,173.934401 C65.8068182,172.155992 67.2623967,170.700413 69.0408058,170.700413 L76.2463843,170.700413 L79.9886364,165.247934" id="Fill-28" fill="#89BAAB"></path>
                    <path d="M38.5764463,191.775826 L24.0005165,191.17407 L25.3150826,187.88688 L16.6663223,186.757748 C23.6017562,198.972107 32.5387397,209.899793 43.0320248,219.096591 L43.5020661,218.411674 L38.5764463,191.775826" id="Fill-29" fill="#E3E3DE"></path>
                    <path d="M16.6663223,186.757748 C23.6017562,198.972107 32.5387397,209.899793 43.0320248,219.096591 L43.5020661,218.411674 L38.5764463,191.775826 L24.0005165,191.17407 L25.3150826,187.88688 L16.6663223,186.757748" id="Fill-30" fill="#D0CFC9"></path>
                    <path d="M144.478822,71.2804752 L186.936983,71.2804752 C189.777893,71.2804752 192.102273,73.6048554 192.102273,76.4457645 L192.102273,143.077996 C192.102273,143.979339 191.866736,144.827996 191.456612,145.567665 L248.298554,145.567665 C249.381198,138.957128 249.953512,132.174587 249.953512,125.257748 C249.953512,98.8646694 241.749483,74.3920455 227.76343,54.2350207 L156.177169,54.2350207 L144.478822,71.2804752" id="Fill-31" fill="#D67E40"></path>
                    <path d="M227.76343,54.2350207 L156.177169,54.2350207 L144.478822,71.2804752 L186.936983,71.2804752 C189.777893,71.2804752 192.102273,73.6048554 192.102273,76.4457645 L192.102273,143.077996 C192.102273,143.979339 191.866736,144.827996 191.456612,145.567665 L248.298554,145.567665 C249.381198,138.957128 249.953512,132.174587 249.953512,125.257748 C249.953512,98.8646694 241.749483,74.3920455 227.76343,54.2350207" id="Fill-32" fill="#DA915B"></path>
                    <path d="M117.076446,148.243285 L91.6590909,148.243285 L84.0655992,159.307851 L116.693182,159.307851 C116.820764,155.619318 116.948864,151.931302 117.076446,148.243285" id="Fill-33" fill="#EADDB6"></path>
                    <path d="M117.076446,148.243285 L91.6590909,148.243285 L84.0655992,159.307851 L116.693182,159.307851 C116.820764,155.619318 116.948864,151.931302 117.076446,148.243285" id="Fill-34" fill="#EBE0C1"></path>
                    <path d="M186.936983,148.243285 L132.983988,148.243285 C133.112087,151.931302 133.239669,155.619318 133.367252,159.307851 L245.247934,159.307851 C246.517045,154.82593 247.533574,150.239153 248.298554,145.567665 L191.456612,145.567665 C190.573864,147.159091 188.87655,148.243285 186.936983,148.243285" id="Fill-35" fill="#EADDB6"></path>
                    <path d="M248.298554,145.567665 L191.456612,145.567665 C190.573864,147.159091 188.87655,148.243285 186.936983,148.243285 L132.983988,148.243285 C133.112087,151.931302 133.239669,155.619318 133.367252,159.307851 L245.247934,159.307851 C246.517045,154.82593 247.533574,150.239153 248.298554,145.567665" id="Fill-36" fill="#EBE0C1"></path>
                    <path d="M133.392045,160.030475 L245.036157,160.030475 C245.105888,159.789256 245.179752,159.549587 245.247934,159.307851 L133.367252,159.307851 C133.375517,159.548554 133.383781,159.789256 133.392045,160.030475" id="Fill-37" fill="#8ACAB7"></path>
                    <path d="M245.247934,159.307851 L133.367252,159.307851 C133.375517,159.548554 133.383781,159.789256 133.392045,160.030475 L245.036157,160.030475 C245.105888,159.789256 245.179752,159.549587 245.247934,159.307851" id="Fill-38" fill="#9FD0C1"></path>
                    <path d="M116.693182,159.307851 L84.0655992,159.307851 L83.5692149,160.030475 L116.668388,160.030475 C116.676653,159.789256 116.684917,159.548554 116.693182,159.307851" id="Fill-39" fill="#8ACAB7"></path>
                    <path d="M116.693182,159.307851 L84.0655992,159.307851 L83.5692149,160.030475 L116.668388,160.030475 C116.676653,159.789256 116.684917,159.548554 116.693182,159.307851" id="Fill-40" fill="#9FD0C1"></path>
                    <path d="M59.8708678,143.077996 L59.8708678,76.4457645 C59.8708678,73.6048554 62.1952479,71.2804752 65.036157,71.2804752 L144.478822,71.2804752 L156.177169,54.2350207 L22.660124,54.2350207 C8.67355372,74.3920455 0.470041322,98.8646694 0.470041322,125.257748 C0.470041322,132.174587 1.04235537,138.957128 2.125,145.567665 L60.5165289,145.567665 C60.106405,144.827996 59.8708678,143.979339 59.8708678,143.077996" id="Fill-41" fill="#D67E40"></path>
                    <path d="M156.177169,54.2350207 L22.660124,54.2350207 C8.67355372,74.3920455 0.470041322,98.8646694 0.470041322,125.257748 C0.470041322,132.174587 1.04235537,138.957128 2.125,145.567665 L60.5165289,145.567665 C60.106405,144.827996 59.8708678,143.979339 59.8708678,143.077996 L59.8708678,76.4457645 C59.8708678,73.6048554 62.1952479,71.2804752 65.036157,71.2804752 L144.478822,71.2804752 L156.177169,54.2350207" id="Fill-42" fill="#CE8B59"></path>
                    <path d="M91.6590909,148.243285 L65.036157,148.243285 C63.0965909,148.243285 61.3992769,147.159091 60.5165289,145.567665 L2.125,145.567665 C2.88997934,150.239153 3.90650826,154.82593 5.17510331,159.307851 L84.0655992,159.307851 L91.6590909,148.243285" id="Fill-43" fill="#EADDB6"></path>
                    <path d="M60.5165289,145.567665 L2.125,145.567665 C2.88997934,150.239153 3.90650826,154.82593 5.17510331,159.307851 L84.0655992,159.307851 L91.6590909,148.243285 L65.036157,148.243285 C63.0965909,148.243285 61.3992769,147.159091 60.5165289,145.567665" id="Fill-44" fill="#DBD0B4"></path>
                    <path d="M84.0655992,159.307851 L5.17510331,159.307851 C5.24380165,159.549587 5.31766529,159.789256 5.38739669,160.030475 L83.5692149,160.030475 L84.0655992,159.307851" id="Fill-45" fill="#8ACAB7"></path>
                    <path d="M84.0655992,159.307851 L5.17510331,159.307851 C5.24380165,159.549587 5.31766529,159.789256 5.38739669,160.030475 L83.5692149,160.030475 L84.0655992,159.307851" id="Fill-46" fill="#97C4B6"></path>
                    <path d="M116.693182,159.307851 C116.684917,159.548554 116.676653,159.789256 116.668388,160.030475 C116.607955,161.769628 116.548037,163.508781 116.487603,165.247934 C116.424587,167.065599 116.36157,168.882748 116.29907,170.700413 L133.761364,170.700413 C133.698864,168.882748 133.635847,167.065599 133.572831,165.247934 C133.512397,163.508781 133.452479,161.769628 133.392045,160.030475 C133.383781,159.789256 133.375517,159.548554 133.367252,159.307851 C133.239669,155.619318 133.112087,151.931302 132.983988,148.243285 L117.076446,148.243285 C116.948864,151.931302 116.820764,155.619318 116.693182,159.307851" id="Fill-47" fill="#2E302D"></path>
                    <path d="M59.8708678,76.4457645 L59.8708678,143.077996 C59.8708678,143.979339 60.106405,144.827996 60.5165289,145.567665 C61.3992769,147.159091 63.0965909,148.243285 65.036157,148.243285 L186.936983,148.243285 C188.87655,148.243285 190.573864,147.159091 191.456612,145.567665 C191.866736,144.827996 192.102273,143.979339 192.102273,143.077996 L192.102273,76.4457645 C192.102273,73.6048554 189.777893,71.2804752 186.936983,71.2804752 L65.036157,71.2804752 C62.1952479,71.2804752 59.8708678,73.6048554 59.8708678,76.4457645 L59.8708678,76.4457645 Z M65.8068182,81.7629132 C65.8068182,79.2711777 67.8455579,77.2319215 70.3378099,77.2319215 L181.635331,77.2319215 C184.127066,77.2319215 186.166322,79.2711777 186.166322,81.7629132 L186.166322,137.760331 C186.166322,140.252583 184.127066,142.291322 181.635331,142.291322 L70.3378099,142.291322 C67.8455579,142.291322 65.8068182,140.252583 65.8068182,137.760331 L65.8068182,81.7629132 L65.8068182,81.7629132 Z" id="Fill-48" fill="#363E39"></path>
                    <path d="M70.3378099,142.291322 L181.635331,142.291322 C184.127066,142.291322 186.166322,140.252583 186.166322,137.760331 L186.166322,81.7629132 C186.166322,79.2711777 184.127066,77.2319215 181.635331,77.2319215 L70.3378099,77.2319215 C67.8455579,77.2319215 65.8068182,79.2711777 65.8068182,81.7629132 L65.8068182,137.760331 C65.8068182,140.252583 67.8455579,142.291322 70.3378099,142.291322 L70.3378099,142.291322 Z M101.268595,127.221591 L122.030992,91.2603306 C123.224174,89.1942149 126.206095,89.1942149 127.39876,91.2603306 L148.161674,127.221591 C149.354339,129.288223 147.86312,131.870351 145.477789,131.870351 L103.952479,131.870351 C101.566632,131.870351 100.07593,129.288223 101.268595,127.221591 L101.268595,127.221591 Z" id="Fill-49" fill="#F6F5F4"></path>
                    <path d="M76.2463843,170.700413 L69.0413223,170.700413 C67.2623967,170.700413 65.8068182,172.155992 65.8068182,173.934401 C65.8068182,175.713326 67.2623967,177.168905 69.0413223,177.168905 L188.867769,177.168905 C190.646694,177.168905 192.102273,175.713326 192.102273,173.934401 C192.102273,172.155992 190.646694,170.700413 188.867769,170.700413 L76.2463843,170.700413" id="Fill-50" fill="#3B3C39"></path>
                    <path d="M83.1590909,208.384814 L83.2840909,208.384814 C84.5583678,208.384814 85.6012397,209.427686 85.6012397,210.701963 L85.6012397,211.431818 L86.1797521,211.431818 L86.1797521,203.870868 C86.1797521,202.596074 87.222624,201.553202 88.4969008,201.553202 L88.6213843,201.553202 C89.8961777,201.553202 90.9385331,202.596074 90.9385331,203.870868 L90.9385331,211.431818 L91.5180785,211.431818 L91.5180785,200.882231 C91.5180785,199.607955 92.5609504,198.565083 93.8357438,198.565083 L93.9602273,198.565083 C95.2345041,198.565083 96.277376,199.607955 96.277376,200.882231 L96.277376,211.431818 L96.8445248,211.431818 L96.8445248,206.630682 C96.8445248,205.079545 97.9152893,203.809917 99.2241736,203.809917 C100.533058,203.809917 101.603822,205.079545 101.603822,206.630682 L101.603822,211.431818 L151.092975,211.431818 L151.092975,206.630682 C151.092975,205.079545 152.16374,203.809917 153.472107,203.809917 C154.780992,203.809917 155.851756,205.079545 155.851756,206.630682 L155.851756,211.431818 L156.419421,211.431818 L156.419421,200.882231 C156.419421,199.607955 157.461777,198.565083 158.73657,198.565083 L158.861054,198.565083 C160.135331,198.565083 161.178202,199.607955 161.178202,200.882231 L161.178202,211.431818 L161.757748,211.431818 L161.757748,203.870868 C161.757748,202.596074 162.80062,201.553202 164.074897,201.553202 L164.19938,201.553202 C165.474174,201.553202 166.516529,202.596074 166.516529,203.870868 L166.516529,211.431818 L167.095041,211.431818 L167.095041,210.701963 C167.095041,209.427686 168.137913,208.384814 169.412707,208.384814 L169.53719,208.384814 C170.811467,208.384814 171.854339,209.427686 171.854339,210.701963 L171.854339,211.431818 L192.735021,211.431818 C195.882748,211.431818 197.255682,209.107438 195.78564,206.266529 C193.330062,201.445764 190.874483,196.624483 188.418388,191.803719 C186.94938,188.96281 183.673037,186.63843 181.13843,186.63843 L76.7706612,186.63843 C74.2360537,186.63843 70.9602273,188.96281 69.4907025,191.803719 C67.0346074,196.624483 64.5790289,201.445764 62.1234504,206.266529 C60.6539256,209.107438 62.026343,211.431818 65.1740702,211.431818 L80.8419421,211.431818 L80.8419421,210.701963 C80.8419421,209.427686 81.884814,208.384814 83.1590909,208.384814" id="Fill-51" fill="#2E302D"></path>
                    <path d="M86.5795455,214.730888 L90.5387397,214.730888 C90.6849174,214.730888 90.8207645,214.773244 90.9385331,214.842975 L90.9385331,203.870868 C90.9385331,202.596074 89.8961777,201.553202 88.6213843,201.553202 L88.4969008,201.553202 C87.222624,201.553202 86.1797521,202.596074 86.1797521,203.870868 L86.1797521,214.842975 C86.2975207,214.773244 86.4333678,214.730888 86.5795455,214.730888" id="Fill-52" fill="#886D55"></path>
                    <path d="M91.6027893,245.41374 C93.4545455,245.930269 95.322314,246.409091 97.2081612,246.841426 C97.2215909,246.36312 97.2365702,245.887397 97.2525826,245.41374 L91.6027893,245.41374" id="Fill-53" fill="#886D55"></path>
                    <path d="M97.2990702,244.101756 C97.3755165,242.145661 97.4741736,240.237603 97.597624,238.393595 C98.5945248,237.51343 99.4488636,236.436467 100.11157,235.21126 C100.679236,234.393595 101.17407,233.643079 101.521178,233.217459 C102.587293,231.91064 103.183368,230.698347 104.418388,229.566116 C104.418388,229.566116 106.092975,227.577996 107.045971,227.13688 C108.114669,226.642562 110.610537,224.757748 109.664773,223.030992 C109.039256,221.889463 107.728822,221.863636 107.728822,221.863636 C106.330579,221.940083 104.328512,223.518595 103.258264,224.529959 C102.733988,225.02531 102.341426,225.363636 101.955062,225.607438 C101.739669,225.190083 101.643079,224.483988 101.603822,223.802686 L101.603822,206.630682 C101.603822,205.079545 100.533058,203.809917 99.2241736,203.809917 C97.9152893,203.809917 96.8445248,205.079545 96.8445248,206.630682 L96.8445248,219.045455 C96.6590909,218.909607 96.4705579,218.779959 96.277376,218.657541 L96.277376,200.882231 C96.277376,199.607955 95.2345041,198.565083 93.9602273,198.565083 L93.8357438,198.565083 C92.5609504,198.565083 91.5180785,199.607955 91.5180785,200.882231 L91.5180785,217.15031 C91.392562,217.145145 91.2670455,217.139463 91.1399793,217.139463 C91.072314,217.139463 91.0061983,217.143595 90.9385331,217.145145 L90.9385331,216.211777 C90.8207645,216.280992 90.6849174,216.323864 90.5387397,216.323864 L86.5795455,216.323864 C86.4333678,216.323864 86.2975207,216.280992 86.1797521,216.211777 L86.1797521,218.573347 C85.9819215,218.697314 85.7902893,218.830579 85.6012397,218.968492 L85.6012397,210.701963 C85.6012397,209.427686 84.5583678,208.384814 83.2840909,208.384814 L83.1590909,208.384814 C81.884814,208.384814 80.8419421,209.427686 80.8419421,210.701963 L80.8419421,228.572831 L80.8471074,228.621901 C80.8434917,228.755165 80.8383264,228.88843 80.8383264,229.022727 C80.8383264,232.647727 82.2128099,235.891012 84.418905,238.070764 C84.535124,239.753099 84.6296488,241.490702 84.7055785,243.269628 C85.5413223,243.556818 86.3822314,243.832128 87.2257231,244.101756 L97.2990702,244.101756" id="Fill-54" fill="#886D55"></path>
                    <path d="M98.956095,245.41374 C99.3166322,245.41374 99.6120868,245.118285 99.6120868,244.757748 C99.6120868,244.397211 99.3166322,244.101756 98.956095,244.101756 L87.2257231,244.101756 C88.6740702,244.56405 90.1322314,245.003099 91.6027893,245.41374 L98.956095,245.41374" id="Fill-55" fill="#E29B31"></path>
                    <path d="M91.3352273,215.527376 C91.3352273,215.235537 91.1745868,214.981921 90.9385331,214.842975 C90.8207645,214.773244 90.6849174,214.730888 90.5387397,214.730888 L86.5795455,214.730888 C86.4333678,214.730888 86.2975207,214.773244 86.1797521,214.842975 C85.9436983,214.981921 85.7830579,215.235537 85.7830579,215.527376 C85.7830579,215.819215 85.9436983,216.072831 86.1797521,216.211777 C86.2975207,216.280992 86.4333678,216.323864 86.5795455,216.323864 L90.5387397,216.323864 C90.6849174,216.323864 90.8207645,216.280992 90.9385331,216.211777 C91.1745868,216.072831 91.3352273,215.819215 91.3352273,215.527376" id="Fill-56" fill="#ECE4AE"></path>
                    <path d="M169.53719,208.384814 L169.412707,208.384814 C168.137913,208.384814 167.095041,209.427686 167.095041,210.701963 L167.095041,218.968492 C166.905992,218.830579 166.71436,218.697314 166.516529,218.573347 L166.516529,203.870868 C166.516529,202.596074 165.474174,201.553202 164.19938,201.553202 L164.074897,201.553202 C162.80062,201.553202 161.757748,202.596074 161.757748,203.870868 L161.757748,217.145145 C161.690599,217.143595 161.623967,217.139463 161.556302,217.139463 C161.429236,217.139463 161.303719,217.145145 161.178202,217.15031 L161.178202,200.882231 C161.178202,199.607955 160.135331,198.565083 158.861054,198.565083 L158.73657,198.565083 C157.461777,198.565083 156.419421,199.607955 156.419421,200.882231 L156.419421,218.657541 C156.22624,218.779959 156.03719,218.909607 155.851756,219.045455 L155.851756,206.630682 C155.851756,205.079545 154.780992,203.809917 153.472107,203.809917 C152.16374,203.809917 151.092975,205.079545 151.092975,206.630682 L151.092975,223.802686 C151.053719,224.483988 150.957128,225.190083 150.741219,225.607438 C150.354855,225.363636 149.962293,225.02531 149.438017,224.529959 C148.367769,223.518595 146.365702,221.940083 144.967459,221.863636 C144.967459,221.863636 143.657541,221.889463 143.032025,223.030992 C142.085744,224.757748 144.581612,226.642562 145.65031,227.13688 C146.603822,227.577996 148.277893,229.566116 148.277893,229.566116 C149.512913,230.698347 150.108988,231.91064 151.175103,233.217459 C151.522211,233.643079 152.017562,234.393595 152.585227,235.21126 C153.247417,236.436467 154.101756,237.51343 155.098657,238.393595 C155.104339,238.47469 155.110537,238.554236 155.115702,238.635847 L168.237087,238.635847 C168.25,238.445248 168.264463,238.259814 168.277376,238.070764 C170.483988,235.891012 171.857955,232.647727 171.857955,229.022727 C171.857955,228.88843 171.853306,228.755165 171.849174,228.621901 L171.854339,228.572831 L171.854339,210.701963 C171.854339,209.427686 170.811467,208.384814 169.53719,208.384814" id="Fill-57" fill="#886D55"></path>
                    <path d="M168.237087,238.635847 L154.051136,238.635847 L154.051136,246.642045 C158.992252,245.472624 163.819731,244.011364 168.513946,242.273244 L168.513946,238.635847 L168.237087,238.635847" id="Fill-58" fill="#4E2B71"></path>
                    <path d="M103.952479,131.870351 L145.477789,131.870351 C147.86312,131.870351 149.354339,129.288223 148.161674,127.221591 L127.39876,91.2603306 C126.206095,89.1942149 123.224174,89.1942149 122.030992,91.2603306 L101.268595,127.221591 C100.07593,129.288223 101.566632,131.870351 103.952479,131.870351 L103.952479,131.870351 Z M124.5,124.460744 C123.346591,124.460744 122.411157,123.52531 122.411157,122.371901 C122.411157,121.218492 123.346591,120.283058 124.5,120.283058 C125.653409,120.283058 126.588326,121.218492 126.588326,122.371901 C126.588326,123.52531 125.653409,124.460744 124.5,124.460744 L124.5,124.460744 Z M124.5,101.253099 L124.5,101.253099 C125.631715,101.253099 126.557851,102.179236 126.557851,103.31095 L126.142562,115.5 C126.142562,116.631715 125.702996,117.557851 124.571281,117.557851 L124.5,117.557851 C123.368285,117.557851 122.928719,116.631715 122.928719,115.5 L122.442149,103.31095 C122.442149,102.179236 123.368285,101.253099 124.5,101.253099 L124.5,101.253099 Z" id="Fill-59" fill="#E3B949"></path>
                    <path d="M122.928719,115.5 C122.928719,116.631715 123.368285,117.557851 124.5,117.557851 L124.571281,117.557851 C125.702996,117.557851 126.142562,116.631715 126.142562,115.5 L126.557851,103.31095 C126.557851,102.179236 125.631715,101.253099 124.5,101.253099 C123.368285,101.253099 122.442149,102.179236 122.442149,103.31095 L122.928719,115.5" id="Fill-60" fill="#2E302D"></path>
                    <path d="M124.5,120.283058 C123.346591,120.283058 122.411157,121.218492 122.411157,122.371901 C122.411157,123.52531 123.346591,124.460744 124.5,124.460744 C125.653409,124.460744 126.588326,123.52531 126.588326,122.371901 C126.588326,121.218492 125.653409,120.283058 124.5,120.283058" id="Fill-61" fill="#2E302D"></path>
                    <path d="M50.6771694,188.188017 L55.5661157,188.188017 L56.5991736,176.479855 L33.5278926,176.479855 L32.3558884,179.80062 L51.6637397,180.597624 L50.6771694,188.188017" id="Fill-62" fill="#95C443"></path>
                    <path d="M50.6771694,188.188017 L51.6637397,180.597624 L28.6120868,179.646178 L24.0005165,191.17407 L50.1487603,192.253099 L50.6771694,188.188017" id="Fill-63" fill="#2DA3BD"></path>
                    <path d="M207.178719,172.034091 L209.117769,167.186983 L222.723657,167.748967 L223.04907,165.247934 L223.053719,165.211777 L208.342975,164.604339 L205.399793,171.960744 L207.178719,172.034091" id="Fill-64" fill="#7C5794"></path>
                    <path d="M207.178719,172.034091 L206.174587,174.543388 L222.86157,175.232438 L223.828512,167.794421 L222.723657,167.748967 L209.117769,167.186983 L207.178719,172.034091" id="Fill-65" fill="#DFE258"></path>
                    <path d="M124.714876,181.688533 C124.714876,181.511364 124.787707,181.350723 124.903926,181.233471 C123.500517,181.350723 122.145661,181.511364 122.145661,181.688533 C122.145661,181.865186 123.500517,182.026343 124.903926,182.143079 C124.787707,182.026343 124.714876,181.865702 124.714876,181.688533" id="Fill-66" fill="#0B0B0A"></path>
                    <path d="M145.09814,181.042872 L125.360537,181.042872 C125.182851,181.042872 125.021178,181.116219 124.903926,181.233471 C124.787707,181.350723 124.714876,181.511364 124.714876,181.688533 C124.714876,181.865702 124.787707,182.026343 124.903926,182.143079 C125.021178,182.260847 125.182851,182.334194 125.360537,182.334194 L145.09814,182.334194 C145.452996,182.334194 145.743802,182.043388 145.743802,181.688533 C145.743802,181.333161 145.452996,181.042872 145.09814,181.042872" id="Fill-67" fill="#131D25"></path>
                </g>
            </g>
        </g>
    </g>
</svg>